<svg width="19" height="21" viewBox="0 0 19 21" fill="none" xmlns="http://www.w3.org/2000/svg">
<path d="M11.4 3.18182C11.4 2.6755 11.1998 2.18991 10.8435 1.83189C10.4872 1.47386 10.0039 1.27273 9.5 1.27273C8.99609 1.27273 8.51282 1.47386 8.1565 1.83189C7.80018 2.18991 7.6 2.6755 7.6 3.18182H6.33333C6.33333 2.33795 6.66696 1.52864 7.26083 0.931933C7.85469 0.335226 8.66015 0 9.5 0C10.3399 0 11.1453 0.335226 11.7392 0.931933C12.333 1.52864 12.6667 2.33795 12.6667 3.18182H18.3667C18.5346 3.18182 18.6957 3.24886 18.8145 3.3682C18.9333 3.48755 19 3.64941 19 3.81818C19 3.98696 18.9333 4.14882 18.8145 4.26816C18.6957 4.3875 18.5346 4.45455 18.3667 4.45455H17.6649L16.0233 18.7473C15.9519 19.3676 15.6559 19.9399 15.1919 20.3552C14.7278 20.7706 14.128 21.0001 13.5065 21H5.49353C4.87204 21.0001 4.2722 20.7706 3.80813 20.3552C3.34406 19.9399 3.04814 19.3676 2.97667 18.7473L1.3338 4.45455H0.633333C0.485101 4.4546 0.341547 4.4024 0.227672 4.30705C0.113797 4.2117 0.036815 4.07924 0.0101332 3.93273L0 3.81818C0 3.64941 0.0667261 3.48755 0.185499 3.3682C0.304272 3.24886 0.465363 3.18182 0.633333 3.18182H11.4ZM16.3881 4.45455H2.6106L4.23447 18.6009C4.27022 18.9112 4.41827 19.1974 4.65043 19.4051C4.8826 19.6128 5.18268 19.7275 5.49353 19.7273H13.5065C13.8171 19.7272 14.1169 19.6124 14.3488 19.4047C14.5807 19.197 14.7285 18.911 14.7643 18.6009L16.3881 4.45455ZM7.6 7.63636C7.91033 7.63636 8.17 7.83364 8.2232 8.09327L8.23333 8.19382V15.9893C8.23333 16.296 7.9496 16.5455 7.6 16.5455C7.28967 16.5455 7.03 16.3482 6.9768 16.0885L6.96667 15.988V8.19509C6.96667 7.88709 7.2504 7.63764 7.6 7.63764V7.63636ZM11.4 7.63636C11.7103 7.63636 11.97 7.83364 12.0232 8.09327L12.0333 8.19382V15.9893C12.0333 16.296 11.7496 16.5455 11.4 16.5455C11.0897 16.5455 10.83 16.3482 10.7768 16.0885L10.7667 15.988V8.19509C10.7667 7.88709 11.0504 7.63764 11.4 7.63764V7.63636Z" fill="white"/>
</svg>
