<svg width="22" height="22" viewBox="0 0 22 22" fill="none" xmlns="http://www.w3.org/2000/svg">
<path d="M19.6378 2.3609C19.0074 1.73058 18.1525 1.37646 17.2611 1.37646C16.3697 1.37646 15.5147 1.73058 14.8844 2.3609L2.99545 14.2519C2.64863 14.5986 2.40941 15.0381 2.30658 15.5176L1.39014 19.7938C1.36597 19.9061 1.37033 20.0227 1.40282 20.1329C1.43531 20.2431 1.49489 20.3434 1.57612 20.4246C1.65735 20.5058 1.75764 20.5654 1.86783 20.5979C1.97801 20.6304 2.09459 20.6348 2.20689 20.6106L6.48314 19.6942C6.96237 19.5912 7.40165 19.352 7.74814 19.0053L19.6385 7.11497C20.2686 6.48453 20.6226 5.62965 20.6226 4.73828C20.6226 3.84691 20.2686 2.99202 19.6385 2.36159L19.6378 2.3609ZM15.8565 3.33303C16.2319 2.97453 16.7326 2.77714 17.2516 2.7831C17.7707 2.78906 18.2667 2.99789 18.6338 3.36491C19.0008 3.73194 19.2096 4.22802 19.2156 4.74704C19.2215 5.26605 19.0241 5.7668 18.6656 6.14215L18.0469 6.76159L15.2378 3.95247L15.8565 3.33372V3.33303ZM14.2656 4.92528L17.0748 7.73372L6.7767 18.0332C6.61736 18.1924 6.41538 18.3022 6.19508 18.3494L2.95627 19.0438L3.65064 15.8057C3.6978 15.5854 3.80762 15.3834 3.96689 15.224L14.2643 4.92528H14.2656Z" fill="white"/>
</svg>
