<svg width="23" height="23" viewBox="0 0 23 23" fill="none" xmlns="http://www.w3.org/2000/svg">
<g clip-path="url(#clip0_149_10110)">
<path d="M6.70833 0H3.83333C2.81667 0 1.84165 0.403868 1.12276 1.12276C0.403868 1.84165 0 2.81667 0 3.83333L0 6.70833C0 7.725 0.403868 8.70002 1.12276 9.41891C1.84165 10.1378 2.81667 10.5417 3.83333 10.5417H6.70833C7.725 10.5417 8.70002 10.1378 9.41891 9.41891C10.1378 8.70002 10.5417 7.725 10.5417 6.70833V3.83333C10.5417 2.81667 10.1378 1.84165 9.41891 1.12276C8.70002 0.403868 7.725 0 6.70833 0V0ZM8.625 6.70833C8.625 7.21667 8.42307 7.70418 8.06362 8.06362C7.70418 8.42307 7.21667 8.625 6.70833 8.625H3.83333C3.325 8.625 2.83749 8.42307 2.47805 8.06362C2.1186 7.70418 1.91667 7.21667 1.91667 6.70833V3.83333C1.91667 3.325 2.1186 2.83749 2.47805 2.47805C2.83749 2.1186 3.325 1.91667 3.83333 1.91667H6.70833C7.21667 1.91667 7.70418 2.1186 8.06362 2.47805C8.42307 2.83749 8.625 3.325 8.625 3.83333V6.70833Z" fill="#0071F2"/>
<path d="M19.1667 0H16.2917C15.275 0 14.3 0.403868 13.5811 1.12276C12.8622 1.84165 12.4583 2.81667 12.4583 3.83333V6.70833C12.4583 7.725 12.8622 8.70002 13.5811 9.41891C14.3 10.1378 15.275 10.5417 16.2917 10.5417H19.1667C20.1833 10.5417 21.1584 10.1378 21.8773 9.41891C22.5961 8.70002 23 7.725 23 6.70833V3.83333C23 2.81667 22.5961 1.84165 21.8773 1.12276C21.1584 0.403868 20.1833 0 19.1667 0V0ZM21.0833 6.70833C21.0833 7.21666 20.8814 7.70418 20.522 8.06362C20.1625 8.42307 19.675 8.625 19.1667 8.625H16.2917C15.7833 8.625 15.2958 8.42307 14.9364 8.06362C14.5769 7.70418 14.375 7.21666 14.375 6.70833V3.83333C14.375 3.325 14.5769 2.83749 14.9364 2.47804C15.2958 2.1186 15.7833 1.91667 16.2917 1.91667H19.1667C19.675 1.91667 20.1625 2.1186 20.522 2.47804C20.8814 2.83749 21.0833 3.325 21.0833 3.83333V6.70833Z" fill="#0071F2"/>
<path d="M6.70833 12.458H3.83333C2.81667 12.458 1.84165 12.8619 1.12276 13.5808C0.403868 14.2997 0 15.2747 0 16.2913L0 19.1663C0 20.183 0.403868 21.158 1.12276 21.8769C1.84165 22.5958 2.81667 22.9997 3.83333 22.9997H6.70833C7.725 22.9997 8.70002 22.5958 9.41891 21.8769C10.1378 21.158 10.5417 20.183 10.5417 19.1663V16.2913C10.5417 15.2747 10.1378 14.2997 9.41891 13.5808C8.70002 12.8619 7.725 12.458 6.70833 12.458ZM8.625 19.1663C8.625 19.6747 8.42307 20.1622 8.06362 20.5216C7.70418 20.8811 7.21666 21.083 6.70833 21.083H3.83333C3.325 21.083 2.83749 20.8811 2.47804 20.5216C2.1186 20.1622 1.91667 19.6747 1.91667 19.1663V16.2913C1.91667 15.783 2.1186 15.2955 2.47804 14.9361C2.83749 14.5766 3.325 14.3747 3.83333 14.3747H6.70833C7.21666 14.3747 7.70418 14.5766 8.06362 14.9361C8.42307 15.2955 8.625 15.783 8.625 16.2913V19.1663Z" fill="#0071F2"/>
<path d="M19.1667 12.458H16.2917C15.275 12.458 14.3 12.8619 13.5811 13.5808C12.8622 14.2997 12.4583 15.2747 12.4583 16.2913V19.1663C12.4583 20.183 12.8622 21.158 13.5811 21.8769C14.3 22.5958 15.275 22.9997 16.2917 22.9997H19.1667C20.1833 22.9997 21.1584 22.5958 21.8773 21.8769C22.5961 21.158 23 20.183 23 19.1663V16.2913C23 15.2747 22.5961 14.2997 21.8773 13.5808C21.1584 12.8619 20.1833 12.458 19.1667 12.458ZM21.0833 19.1663C21.0833 19.6747 20.8814 20.1622 20.522 20.5216C20.1625 20.8811 19.675 21.083 19.1667 21.083H16.2917C15.7833 21.083 15.2958 20.8811 14.9364 20.5216C14.5769 20.1622 14.375 19.6747 14.375 19.1663V16.2913C14.375 15.783 14.5769 15.2955 14.9364 14.9361C15.2958 14.5766 15.7833 14.3747 16.2917 14.3747H19.1667C19.675 14.3747 20.1625 14.5766 20.522 14.9361C20.8814 15.2955 21.0833 15.783 21.0833 16.2913V19.1663Z" fill="#0071F2"/>
</g>
<defs>
<clipPath id="clip0_149_10110">
<rect width="23" height="23" fill="white"/>
</clipPath>
</defs>
</svg>
