<svg width="59" height="59" viewBox="0 0 59 59" fill="none" xmlns="http://www.w3.org/2000/svg">
<rect width="59" height="59" rx="10" fill="#F0F0F0"/>
<path fill-rule="evenodd" clip-rule="evenodd" d="M13.6404 29.92C13.6404 36.0728 17.1857 41.4507 22.6266 43.9738C24.7202 44.9446 27.9578 45.6361 30.5926 45.2723C31.5193 45.1444 31.5996 43.7602 30.6508 43.5458C30.1586 43.4346 27.179 44.1509 23.3466 42.3738C22.4626 41.9639 21.493 41.4058 20.7493 40.8111C18.9104 39.3405 17.6317 37.8214 16.6266 35.6538C15.021 32.1913 15.0326 28.526 16.3711 24.9708C16.4521 24.7555 16.5444 24.6124 16.6465 24.3662C17.8891 21.3685 20.9267 18.5836 23.913 17.3928L25.8475 16.7673C30.634 15.6644 35.3719 17.1315 38.5804 20.34C38.8979 20.6575 39.0796 20.8974 39.3801 21.2202C41.5259 23.5246 42.6003 27.0106 42.6003 30.3201C42.6003 31.042 42.1638 32.32 43.4803 32.32C43.8741 32.32 44.2031 31.96 44.2627 31.6625C44.7848 29.0521 43.679 24.606 42.3459 22.4145C40.9804 20.1701 39.9569 19.0105 37.8128 17.4276C37.1918 16.9691 36.0948 16.3605 35.374 16.0263C25.494 11.4448 13.6404 18.699 13.6404 29.92Z" fill="#64BC26"/>
<path fill-rule="evenodd" clip-rule="evenodd" d="M33.8003 40.64C33.8003 38.8616 34.0646 37.6955 35.3802 36.3799C37.0178 34.7423 39.5003 34.3234 41.6151 35.3053C42.1817 35.5684 42.6854 35.9648 43.1004 36.3799C43.505 36.7844 43.8835 37.2643 44.1493 37.811C44.8727 39.2988 44.8713 41.1155 44.1751 42.6148C43.4235 44.2334 41.4857 45.6801 39.6403 45.6801C37.8617 45.6801 36.6959 45.4159 35.3802 44.1002C34.5215 43.2416 33.8003 41.9354 33.8003 40.64ZM32.0403 39.8401C32.0403 41.2488 32.1004 42.0352 32.7056 43.3348C32.8699 43.6878 33.1239 44.0754 33.3352 44.3852C34.5009 46.0942 36.7364 47.4401 38.8403 47.4401C40.7705 47.4401 41.8334 47.2039 43.3854 46.1452C44.3507 45.4868 45.2326 44.4464 45.7492 43.389C46.6893 41.465 46.6714 39.0874 45.7743 37.1461C44.7392 34.9063 42.1652 33.04 39.6403 33.04C37.3797 33.04 35.7176 33.5627 34.1403 35.14C32.9573 36.3229 32.0403 38.1014 32.0403 39.8401Z" fill="#64BC26"/>
<path fill-rule="evenodd" clip-rule="evenodd" d="M28.2803 23.36C27.7262 23.6259 26.3686 23.7876 25.5849 25.4646C24.5493 27.6809 25.8143 30.499 28.6199 30.8604C29.2276 30.9387 29.3436 30.8325 29.8569 31.0632C32.4464 32.2275 30.2723 36.4274 27.67 34.4503C26.6106 33.6452 27.3959 32.3851 26.2935 32.0592C25.8496 31.928 25.2403 32.2573 25.2403 32.7999C25.2403 34.0505 25.563 34.8391 26.4098 35.6305C26.8945 36.0835 27.5737 36.5442 28.2803 36.5599C28.2803 38.1982 28.077 39.04 29.4003 39.04C30.3189 39.04 30.0403 37.0236 30.0403 36.48C31.1826 36.3849 32.7603 34.707 32.7603 33.2C32.7603 32.17 32.6688 31.5016 32.0307 30.6495C31.6361 30.1225 31.1233 29.6938 30.4652 29.4151C29.4044 28.9658 28.7872 29.2485 28.1442 28.936C25.5318 27.6667 27.7771 23.6095 30.3306 25.5496C31.39 26.3547 30.6047 27.6148 31.7071 27.9407C32.151 28.0719 32.7603 27.7426 32.7603 27.2C32.7603 26.2217 32.5139 25.3246 31.9026 24.6976C31.4803 24.2644 30.7758 23.5812 30.0403 23.5199C30.0403 21.9093 30.3277 20.96 29.0803 20.96C28.109 20.96 28.2803 22.3661 28.2803 23.36Z" fill="#64BC26"/>
<path fill-rule="evenodd" clip-rule="evenodd" d="M38.2803 36.7202V39.2801H35.7203C34.6572 39.2801 34.6572 41.2001 35.7203 41.2001H38.2803V43.7601C38.2803 44.8232 40.2003 44.8232 40.2003 43.7601V41.2001H42.7603C43.8234 41.2001 43.8234 39.2801 42.7603 39.2801H40.2003V36.7202C40.2003 35.6571 38.2803 35.6571 38.2803 36.7202Z" fill="#64BC26"/>
</svg>
