<svg width="24" height="23" viewBox="0 0 24 23" fill="none" xmlns="http://www.w3.org/2000/svg">
<rect width="23.027" height="22.8947" rx="11.4474" fill="#FD9900"/>
<path d="M17.4 9.8H6.6C6.44087 9.8 6.28826 9.86321 6.17574 9.97574C6.06321 10.0883 6 10.2409 6 10.4C6.00003 11.4532 6.27728 12.4878 6.80389 13.3999C7.33049 14.312 8.08791 15.0694 9 15.596V16.4C9 16.5591 9.06321 16.7117 9.17574 16.8243C9.28826 16.9368 9.44087 17 9.6 17H14.4C14.5591 17 14.7117 16.9368 14.8243 16.8243C14.9368 16.7117 15 16.5591 15 16.4V15.596C15.9121 15.0694 16.6695 14.312 17.1961 13.3999C17.7227 12.4878 18 11.4532 18 10.4C18 10.2409 17.9368 10.0883 17.8243 9.97574C17.7117 9.86321 17.5591 9.8 17.4 9.8ZM14.13 14.696C14.0301 14.7463 13.9463 14.8235 13.888 14.919C13.8297 15.0144 13.7992 15.1242 13.8 15.236V15.8H10.2V15.236C10.2008 15.1242 10.1703 15.0144 10.112 14.919C10.0537 14.8235 9.96986 14.7463 9.87 14.696C9.16015 14.345 8.54816 13.8239 8.08858 13.179C7.629 12.5341 7.3361 11.7855 7.236 11H16.764C16.6639 11.7855 16.371 12.5341 15.9114 13.179C15.4518 13.8239 14.8399 14.345 14.13 14.696ZM10.2 9.2V8.558C10.1991 7.85218 9.92369 7.17438 9.432 6.668C9.29289 6.52743 9.18307 6.36065 9.10892 6.17732C9.03476 5.99398 8.99774 5.79775 9 5.6V5H7.8V5.6C7.79776 6.30997 8.07341 6.99264 8.568 7.502C8.84603 7.78299 9.00137 8.16271 9 8.558V9.2H10.2ZM12.6 9.2V8.558C12.5991 7.85218 12.3237 7.17438 11.832 6.668C11.6929 6.52743 11.5831 6.36065 11.5089 6.17732C11.4348 5.99398 11.3977 5.79775 11.4 5.6V5H10.2V5.6C10.2009 6.30582 10.4763 6.98362 10.968 7.49C11.1071 7.63057 11.2169 7.79735 11.2911 7.98068C11.3652 8.16402 11.4023 8.36025 11.4 8.558V9.2H12.6ZM15 9.2V8.558C14.9991 7.85218 14.7237 7.17438 14.232 6.668C14.0929 6.52743 13.9831 6.36065 13.9089 6.17732C13.8348 5.99398 13.7977 5.79775 13.8 5.6V5H12.6V5.6C12.6009 6.30582 12.8763 6.98362 13.368 7.49C13.5071 7.63057 13.6169 7.79735 13.6911 7.98068C13.7652 8.16402 13.8023 8.36025 13.8 8.558V9.2H15Z" fill="#FFF5FF"/>
</svg>
