<svg width="21" height="20" viewBox="0 0 21 20" fill="none" xmlns="http://www.w3.org/2000/svg">
<rect width="20.1156" height="20" rx="10" fill="#FD9900"/>
<path d="M15.2 8.56078H5.76552C5.62651 8.56078 5.49319 8.616 5.3949 8.7143C5.2966 8.81259 5.24138 8.94591 5.24138 9.08492C5.2414 10.0049 5.4836 10.9088 5.94362 11.7055C6.40365 12.5023 7.0653 13.1639 7.86207 13.624V14.3263C7.86207 14.4653 7.91729 14.5986 8.01558 14.6969C8.11388 14.7952 8.2472 14.8504 8.38621 14.8504H12.5793C12.7183 14.8504 12.8516 14.7952 12.9499 14.6969C13.0482 14.5986 13.1034 14.4653 13.1034 14.3263V13.624C13.9002 13.1639 14.5619 12.5023 15.0219 11.7055C15.4819 10.9088 15.7241 10.0049 15.7241 9.08492C15.7241 8.94591 15.6689 8.81259 15.5706 8.7143C15.4723 8.616 15.339 8.56078 15.2 8.56078ZM12.3434 12.8377C12.2562 12.8817 12.183 12.9492 12.1321 13.0325C12.0811 13.1159 12.0545 13.2118 12.0552 13.3095V13.8022H8.91034V13.3095C8.91102 13.2118 8.88439 13.1159 8.83346 13.0325C8.78252 12.9492 8.7093 12.8817 8.62207 12.8377C8.00197 12.5311 7.46735 12.0759 7.06588 11.5125C6.66441 10.9492 6.40855 10.2953 6.3211 9.60906H14.6444C14.557 10.2953 14.3011 10.9492 13.8996 11.5125C13.4982 12.0759 12.9635 12.5311 12.3434 12.8377ZM8.91034 8.03664V7.47581C8.90957 6.85923 8.66897 6.26714 8.23945 5.82478C8.11793 5.70199 8.02199 5.55629 7.95721 5.39614C7.89243 5.23598 7.86009 5.06456 7.86207 4.89181V4.36768H6.81379V4.89181C6.81184 5.51202 7.05264 6.10837 7.48469 6.55333C7.72757 6.79879 7.86327 7.1305 7.86207 7.47581V8.03664H8.91034ZM11.0069 8.03664V7.47581C11.0061 6.85923 10.7655 6.26714 10.336 5.82478C10.2145 5.70199 10.1185 5.55629 10.0538 5.39614C9.98898 5.23598 9.95664 5.06456 9.95862 4.89181V4.36768H8.91034V4.89181C8.91112 5.50839 9.15172 6.10049 9.58124 6.54285C9.70276 6.66564 9.7987 6.81134 9.86348 6.97149C9.92826 7.13165 9.9606 7.30307 9.95862 7.47581V8.03664H11.0069ZM13.1034 8.03664V7.47581C13.1027 6.85923 12.8621 6.26714 12.4326 5.82478C12.311 5.70199 12.2151 5.55629 12.1503 5.39614C12.0855 5.23598 12.0532 5.06456 12.0552 4.89181V4.36768H11.0069V4.89181C11.0077 5.50839 11.2483 6.10049 11.6778 6.54285C11.7993 6.66564 11.8952 6.81134 11.96 6.97149C12.0248 7.13165 12.0571 7.30307 12.0552 7.47581V8.03664H13.1034Z" fill="#FFF5FF"/>
</svg>
