<svg width="30" height="30" viewBox="0 0 30 30" fill="none" xmlns="http://www.w3.org/2000/svg">
<path fill-rule="evenodd" clip-rule="evenodd" d="M3.48004 14.94C3.48004 19.5546 6.13902 23.588 10.2197 25.4803C11.7899 26.2085 14.2181 26.7271 16.1942 26.4542C16.8892 26.3583 16.9495 25.3202 16.2379 25.1594C15.8688 25.0759 13.6341 25.6132 10.7597 24.2803C10.0968 23.9729 9.36953 23.5544 8.81174 23.1083C7.43254 22.0054 6.47358 20.8661 5.7197 19.2403C4.51554 16.6435 4.52426 13.8945 5.52808 11.2281C5.58888 11.0666 5.65805 10.9593 5.73465 10.7746C6.66662 8.52639 8.94483 6.43767 11.1846 5.54461L12.6354 5.07548C16.2253 4.24832 19.7787 5.3486 22.1851 7.755C22.4232 7.99312 22.5595 8.17305 22.7849 8.41512C24.3942 10.1435 25.2 12.758 25.2 15.2401C25.2 15.7815 24.8726 16.74 25.86 16.74C26.1554 16.74 26.4021 16.47 26.4468 16.2469C26.8384 14.2891 26.009 10.9545 25.0092 9.31088C23.9851 7.62759 23.2175 6.75784 21.6094 5.57069C21.1436 5.22685 20.3209 4.7704 19.7803 4.51974C12.3703 1.08357 3.48004 6.52427 3.48004 14.94Z" fill="#64BC26"/>
<path fill-rule="evenodd" clip-rule="evenodd" d="M18.6 22.9803C18.6 21.6464 18.7982 20.7719 19.7849 19.7852C21.0132 18.5569 22.875 18.2428 24.4611 18.9792C24.8861 19.1765 25.2638 19.4739 25.5751 19.7852C25.8786 20.0886 26.1624 20.4485 26.3617 20.8585C26.9043 21.9743 26.9032 23.3369 26.3811 24.4614C25.8174 25.6753 24.3641 26.7603 22.98 26.7603C21.6461 26.7603 20.7717 26.5621 19.7849 25.5754C19.1409 24.9314 18.6 23.9518 18.6 22.9803ZM17.28 22.3803C17.28 23.4369 17.3251 24.0266 17.779 25.0014C17.9022 25.2661 18.0927 25.5568 18.2511 25.7891C19.1254 27.0709 20.802 28.0803 22.38 28.0803C23.8276 28.0803 24.6248 27.9031 25.7888 27.1092C26.5128 26.6154 27.1742 25.835 27.5617 25.042C28.2668 23.599 28.2533 21.8158 27.5805 20.3598C26.8041 18.68 24.8737 17.2803 22.98 17.2803C21.2846 17.2803 20.038 17.6722 18.855 18.8553C17.9677 19.7425 17.28 21.0763 17.28 22.3803Z" fill="#64BC26"/>
<path fill-rule="evenodd" clip-rule="evenodd" d="M14.46 10.0197C14.0444 10.2192 13.0262 10.3405 12.4385 11.5982C11.6618 13.2605 12.6105 15.374 14.7147 15.645C15.1704 15.7038 15.2575 15.6241 15.6425 15.7972C17.5846 16.6704 15.954 19.8203 14.0023 18.3375C13.2077 17.7337 13.7967 16.7886 12.9699 16.5442C12.637 16.4458 12.18 16.6927 12.18 17.0997C12.18 18.0376 12.422 18.6291 13.0571 19.2227C13.4207 19.5624 13.9301 19.9079 14.46 19.9197C14.46 21.1484 14.3075 21.7797 15.3 21.7797C15.9889 21.7797 15.78 20.2674 15.78 19.8597C16.6367 19.7884 17.82 18.53 17.82 17.3998C17.82 16.6272 17.7514 16.1259 17.2728 15.4869C16.9768 15.0916 16.5922 14.7701 16.0986 14.5611C15.3031 14.2241 14.8402 14.4361 14.358 14.2018C12.3986 13.2498 14.0826 10.2069 15.9977 11.662C16.7923 12.2658 16.2033 13.2108 17.0301 13.4553C17.363 13.5537 17.82 13.3067 17.82 12.8997C17.82 12.1661 17.6352 11.4932 17.1767 11.023C16.86 10.6981 16.3316 10.1856 15.78 10.1397C15.78 8.93172 15.9955 8.21973 15.06 8.21973C14.3315 8.21973 14.46 9.27436 14.46 10.0197Z" fill="#64BC26"/>
<path fill-rule="evenodd" clip-rule="evenodd" d="M21.96 20.0404V21.9604H20.04C19.2427 21.9604 19.2427 23.4004 20.04 23.4004H21.96V25.3203C21.96 26.1177 23.4 26.1177 23.4 25.3203V23.4004H25.32C26.1173 23.4004 26.1173 21.9604 25.32 21.9604H23.4V20.0404C23.4 19.2431 21.96 19.2431 21.96 20.0404Z" fill="#64BC26"/>
</svg>
