<svg width="32" height="32" viewBox="0 0 32 32" fill="none" xmlns="http://www.w3.org/2000/svg">
<g clip-path="url(#clip0_149_10166)">
<path fill-rule="evenodd" clip-rule="evenodd" d="M25.75 22.4375H20.625C20.2086 22.4375 19.875 22.6527 19.875 23.0626C19.875 23.5531 19.9142 23.9375 20.75 23.9375H25.5625C26.9126 23.9375 26.7186 22.4375 25.75 22.4375Z" fill="#FD9900"/>
<path d="M23.1494 28.1672C25.8813 28.1672 28.096 25.9334 28.096 23.1778C28.096 20.4223 25.8813 18.1885 23.1494 18.1885C20.4174 18.1885 18.2027 20.4223 18.2027 23.1778C18.2027 25.9334 20.4174 28.1672 23.1494 28.1672Z" stroke="#FD9900" stroke-width="1.6933" stroke-miterlimit="22.9256"/>
<path fill-rule="evenodd" clip-rule="evenodd" d="M3.18752 14.9379C3.18752 18.451 4.39402 21.3533 6.73431 23.7035C6.86591 23.8357 6.93614 23.9184 7.08883 24.0365C8.5308 25.1517 9.37575 25.8923 11.2887 26.5242C12.8834 27.0509 14.6351 27.3361 16.3691 27.1195C17.2066 27.0148 17.2149 25.8204 16.3747 25.7477L15.1875 25.8129C13.1612 25.8129 10.7557 25.1011 9.21346 23.9744C7.5104 22.7302 6.58683 21.7205 5.58321 19.7296C4.23467 17.0542 4.2027 13.3803 5.56228 10.6876C5.85459 10.1086 6.13306 9.58067 6.50943 9.07232C6.69289 8.82453 6.84044 8.59254 7.04741 8.36033C7.70376 7.62423 7.59756 7.76233 8.32761 7.07801C8.87391 6.56588 9.97383 5.92222 10.6458 5.58358C14.6302 3.57528 19.5556 4.56046 22.7659 7.73444C22.9013 7.86831 22.9538 7.92092 23.0625 8.0628C23.3365 8.42058 23.531 8.55807 23.9259 9.13695C25.0579 10.7965 25.8125 12.8898 25.8125 15.1254L25.7443 16.3142C25.7827 17.2259 26.9685 17.1992 27.111 16.424C27.5481 14.0475 26.5318 10.392 25.0809 8.41952C24.6372 7.81645 23.957 6.92184 23.3902 6.42271C23.2244 6.27675 23.1528 6.2456 22.9847 6.07817C22.743 5.83749 22.4267 5.63324 22.1433 5.41962C21.5402 4.96517 20.9363 4.65903 20.2502 4.31267C17.455 2.90131 14.1704 2.87705 11.1791 3.86691C10.7671 4.00328 10.4693 4.16073 10.1162 4.30413C8.94829 4.77846 7.53512 5.87173 6.67187 6.73475C4.90879 8.49738 3.18752 11.4394 3.18752 14.9379Z" fill="#FD9900"/>
<path fill-rule="evenodd" clip-rule="evenodd" d="M14.625 9.99993C14.3375 10.1379 14.2065 10.0527 13.7214 10.3464C11.2145 11.864 12.0363 15.5009 14.9535 15.859C15.4473 15.9196 15.4444 15.8238 15.8565 16.0185C17.4429 16.7684 16.6982 18.9999 15.375 18.9999C13.6731 18.9999 13.7629 18.0288 13.5497 17.2628C13.3315 16.4787 12.25 16.6785 12.25 17.3749V17.75C12.25 18.9012 13.5191 20.2878 14.625 20.3125C14.625 21.2311 14.439 22.2499 15.375 22.2499C16.2147 22.2499 16 20.9991 16 20.25C18.8257 19.5916 18.9319 15.1167 15.6543 14.5333C15.2939 14.4691 13.49 14.5582 13.6077 12.7889C13.715 11.1764 15.8102 10.7995 16.5626 12.1249C16.9728 12.8476 16.4346 13.5624 17.625 13.5624C18.3216 13.5624 18.3081 12.0048 17.4532 11.0468C16.7565 10.266 16.6924 10.4288 16 10.0624C16 9.58078 16.0853 8.66999 15.8771 8.37284C15.6831 8.0958 15.4747 8.1249 15.25 8.1249C14.481 8.1249 14.625 9.21741 14.625 9.99993Z" fill="#FD9900"/>
</g>
<defs>
<clipPath id="clip0_149_10166">
<rect width="32" height="32" fill="white"/>
</clipPath>
</defs>
</svg>
