<svg width="30" height="30" viewBox="0 0 30 30" fill="none" xmlns="http://www.w3.org/2000/svg">
<g clip-path="url(#clip0_149_5522)">
<path d="M10.0088 2.98221C8.22301 3.47436 6.44938 4.00952 4.68943 4.5872C4.52872 4.63926 4.38587 4.73541 4.27714 4.86469C4.16841 4.99397 4.09817 5.1512 4.07443 5.31845C3.03569 13.1128 5.43568 18.7996 8.29879 22.5459C9.51099 24.1478 10.9564 25.5591 12.5869 26.7327C13.2356 27.1902 13.8094 27.5202 14.2613 27.7321C14.4863 27.8389 14.67 27.9102 14.8106 27.9533C14.8721 27.9749 14.9355 27.9906 15 28.0002C15.0637 27.9898 15.1264 27.9742 15.1875 27.9533C15.33 27.9102 15.5137 27.8389 15.7387 27.7321C16.1887 27.5202 16.7644 27.1883 17.4131 26.7327C19.0436 25.5591 20.489 24.1478 21.7012 22.5459C24.5643 18.8015 26.9643 13.1128 25.9256 5.31845C25.902 5.15112 25.8319 4.99379 25.7231 4.86447C25.6144 4.73515 25.4714 4.63906 25.3106 4.5872C24.0899 4.18783 22.0293 3.53721 19.9912 2.98408C17.91 2.41971 15.9956 2.00159 15 2.00159C14.0063 2.00159 12.09 2.41971 10.0088 2.98408V2.98221ZM9.51003 1.05097C11.5444 0.497849 13.7063 0.000976562 15 0.000976562C16.2937 0.000976562 18.4556 0.497849 20.49 1.05097C22.5712 1.61347 24.6693 2.27909 25.9031 2.68221C26.4189 2.85256 26.8762 3.16496 27.2225 3.58352C27.5687 4.00209 27.7899 4.50984 27.8606 5.04845C28.978 13.4428 26.3849 19.664 23.2387 23.7796C21.9045 25.5402 20.3137 27.0906 18.5194 28.3789C17.8989 28.8248 17.2415 29.2168 16.5544 29.5508C16.0294 29.7983 15.465 30.0008 15 30.0008C14.535 30.0008 13.9725 29.7983 13.4456 29.5508C12.7585 29.2168 12.1011 28.8248 11.4806 28.3789C9.68633 27.0905 8.0955 25.5401 6.76129 23.7796C3.61506 19.664 1.02195 13.4428 2.13944 5.04845C2.21011 4.50984 2.43127 4.00209 2.77754 3.58352C3.1238 3.16496 3.58111 2.85256 4.09693 2.68221C5.88791 2.09498 7.6928 1.55108 9.51003 1.05097V1.05097Z" fill="#2685D9"/>
<path d="M17.8125 12.188C17.8128 12.7698 17.6326 13.3375 17.2968 13.8126C16.961 14.2878 16.4861 14.6471 15.9375 14.8411L16.6594 18.5723C16.6856 18.708 16.6815 18.8479 16.6474 18.9818C16.6133 19.1158 16.55 19.2405 16.462 19.3471C16.374 19.4537 16.2636 19.5396 16.1385 19.5985C16.0135 19.6574 15.877 19.688 15.7387 19.6879H14.2612C14.1232 19.6877 13.9869 19.6569 13.862 19.5979C13.7372 19.5389 13.627 19.453 13.5392 19.3464C13.4515 19.2398 13.3883 19.1152 13.3543 18.9814C13.3203 18.8475 13.3163 18.7079 13.3425 18.5723L14.0625 14.8411C13.5764 14.6692 13.1469 14.3671 12.821 13.9676C12.495 13.5682 12.2851 13.0869 12.2142 12.5762C12.1433 12.0655 12.2142 11.5452 12.419 11.0721C12.6238 10.599 12.9547 10.1912 13.3756 9.89348C13.7965 9.59571 14.2911 9.41936 14.8054 9.38369C15.3197 9.34803 15.834 9.45441 16.2919 9.69124C16.7499 9.92806 17.1339 10.2862 17.4021 10.7265C17.6702 11.1668 17.8122 11.6724 17.8125 12.188V12.188Z" fill="#2685D9"/>
</g>
<defs>
<clipPath id="clip0_149_5522">
<rect width="29.9998" height="29.9998" fill="white" transform="translate(9.15527e-05 0.000976562)"/>
</clipPath>
</defs>
</svg>
