<svg width="31" height="32" viewBox="0 0 31 32" fill="none" xmlns="http://www.w3.org/2000/svg">
<g clip-path="url(#clip0_149_5403)">
<rect width="31" height="32" rx="15.5" fill="#6C72CB"/>
<path fill-rule="evenodd" clip-rule="evenodd" d="M4.47248 41.1047C4.42849 41.1078 4.44204 41.0941 4.45814 41.0903C4.46292 41.0951 4.46771 41.1 4.47248 41.1047ZM5.79754 42.054C7.03174 42.1615 8.26032 41.9815 9.48132 41.8015C11.9572 41.5265 14.434 41.9923 16.9153 41.7382C20.018 41.496 23.1262 41.1355 26.2325 41.4543C27.0893 41.445 28.461 41.6353 28.1166 40.2826C27.6215 36.7915 26.9894 33.3228 26.3187 29.8647C25.775 27.9318 25.6553 24.5602 24.2659 23.2511C24.0631 23.0718 23.3371 22.4942 23.1472 22.42C22.2037 22.0944 20.5122 21.8735 19.7983 21.139C19.211 20.1787 19.4397 18.8326 18.5446 18.0741C17.7614 17.4565 16.0902 17.6506 15.2821 18.1628C14.6456 18.6168 14.5651 19.4586 14.1772 20.0925C14.0815 20.2445 13.8541 20.6108 13.7236 20.731C13.4069 21.0638 12.2746 21.4412 11.9467 21.5146C10.0976 21.9708 9.17678 22.2449 7.74636 23.566C4.02605 27.7097 4.74406 34.7858 3.81752 40.068C3.78861 40.6461 3.46725 41.4404 4.08455 41.7907C4.61468 42.0305 5.22975 41.9812 5.79754 42.054Z" fill="white"/>
<path fill-rule="evenodd" clip-rule="evenodd" d="M19.3418 19.8259C19.3461 19.812 19.3673 19.8089 19.3709 19.8249C19.4291 20.0682 19.5335 20.3338 19.6383 20.5604C19.7447 20.7897 19.8875 20.999 20.0657 21.1747C20.4392 21.5428 20.9117 21.7002 21.4252 21.6828L21.4374 21.6827C21.4393 21.665 21.4416 21.6471 21.4436 21.6292L21.4465 21.6025C21.4843 21.2362 21.9055 21.2322 21.9944 21.5045C22.0366 21.5168 22.0786 21.529 22.1204 21.5418L22.1288 21.5446C22.1992 21.5695 22.4383 21.6822 22.4808 21.6486C22.5746 21.5748 22.6857 21.6519 22.7241 21.7407C22.787 21.8864 22.8015 22.0685 22.8246 22.2281L22.8278 22.2487L22.8313 22.2736C24.191 22.5879 24.9836 23.9516 25.4025 25.2188C25.6294 25.9057 25.7844 26.6171 25.94 27.3245C26.1064 28.0811 26.2614 28.8401 26.4243 29.5971C26.7454 31.0891 27.0513 32.585 27.3222 34.0877L27.4008 34.5242C27.649 35.906 27.8918 37.2872 28.1015 38.6766C28.2147 39.4258 28.322 40.1759 28.4262 40.9266C28.4449 41.0606 28.4634 41.1943 28.4817 41.3285L28.5092 41.5295C28.5338 41.7099 28.5723 41.8877 28.4893 42.0602C28.31 42.434 27.7385 42.4511 27.6944 41.9818C27.6856 41.8885 27.7146 41.8159 27.7642 41.7641L27.7632 41.7563C27.7627 41.7516 27.762 41.7481 27.7618 41.7466C27.7426 41.6538 27.7355 41.555 27.7229 41.4608C27.6953 41.26 27.6682 41.0591 27.6409 40.8578C27.5883 40.4747 27.5353 40.0915 27.4809 39.7087C27.3705 38.9322 27.2551 38.1568 27.1337 37.3823L27.0137 36.6165C26.6121 34.0639 26.1962 31.5123 25.6697 28.9846C25.5264 28.2963 25.3795 27.6094 25.2292 26.9228C25.0867 26.2726 24.9289 25.6258 24.7015 25.0013C24.3303 23.981 23.7021 23.0352 22.8467 22.3867C22.8629 22.5157 22.8755 22.6454 22.8907 22.7746C22.9297 23.1059 22.9706 23.4368 23.0119 23.7679C23.1619 24.967 23.3545 26.1627 23.6614 27.3297C23.8134 27.908 23.9953 28.4776 24.2134 29.0326C24.3209 29.3059 24.4375 29.5753 24.5644 29.8394C24.6901 30.1005 24.9059 30.3768 24.9258 30.6719C24.935 30.8085 24.799 30.9347 24.6698 30.9246C24.7436 31.4669 24.7912 32.0157 24.8406 32.5577C24.9125 33.3425 24.974 34.1291 25.0546 34.913C25.199 36.3172 25.3712 37.7185 25.5498 39.1181C25.5852 39.3955 25.623 39.6727 25.6606 39.9498L25.692 40.1826C25.713 40.3335 25.7437 40.5139 25.6688 40.651C25.7431 40.8221 25.7953 40.9983 25.8278 41.1831C25.8688 41.4128 25.7469 41.6762 25.4845 41.6752C25.4547 41.6753 25.4248 41.6736 25.395 41.6714C25.1534 41.7377 24.9124 41.797 24.6601 41.8074C24.3379 41.8208 24.0148 41.8254 23.6925 41.8341C23.069 41.8515 22.4454 41.8687 21.8219 41.885C19.5644 41.9444 17.3063 42.0237 15.0488 42.0645L14.1455 42.0809C13.3175 42.0959 12.4892 42.1088 11.6611 42.1064C11.0908 42.1049 10.5205 42.1031 9.95046 42.099L9.83442 42.0986C9.33149 42.0971 8.82821 42.1049 8.32932 42.0429C8.31682 42.0411 8.3111 42.0281 8.31274 42.0164L8.31336 42.0132L8.29157 42.0089C8.28034 42.0652 8.01242 41.8394 8.01048 41.6833C7.89815 41.5416 7.94317 41.3076 7.95064 41.1388C7.95787 40.9744 7.96802 40.8095 7.97656 40.645C7.99469 40.2936 8.00893 39.942 8.02772 39.5907C8.10355 38.1739 8.16407 36.754 8.19097 35.3359C8.20459 34.6209 8.21206 33.906 8.22083 33.1912C8.22469 32.8658 8.23323 32.5399 8.25618 32.2154L8.26222 32.1344C8.28803 31.8051 8.27602 31.4523 8.38577 31.1392C8.38728 31.1349 8.39277 31.1347 8.3945 31.1389C8.52074 31.4357 8.54075 31.785 8.5729 32.1143C8.57708 32.1128 8.58127 32.112 8.58577 32.1109C8.74782 32.0249 8.91168 31.9471 9.0645 31.8425C9.0852 31.8284 9.10524 31.8137 9.12561 31.7994C9.35076 31.0223 9.61503 30.2564 9.8565 29.4836C10.6366 26.9849 11.0358 24.3389 11.0736 21.7204C10.4423 22.1682 9.75141 22.5236 9.08066 22.9028L9.01785 22.9383C8.35721 23.3136 7.72622 23.7354 7.26483 24.3625C6.86263 24.9087 6.60731 25.566 6.36886 26.1994C6.11281 26.8801 5.88392 27.5718 5.67622 28.2691C5.25482 29.6838 4.93718 31.1293 4.69755 32.5868C4.46099 34.0251 4.30236 35.4714 4.20836 36.9256C4.16043 37.6673 4.11834 38.4094 4.08598 39.1523C4.06943 39.5282 4.05579 39.9044 4.04379 40.2808C4.03797 40.4635 4.03476 40.6466 4.02764 40.8293C4.02314 40.9347 4.02455 41.0433 3.99339 41.1442C3.96731 41.2284 3.91921 41.2997 3.87445 41.3748C3.7927 41.5119 3.57846 41.5436 3.49461 41.388L3.45831 41.3205C3.41023 41.2308 3.3661 41.1403 3.35728 41.035C3.34897 40.9354 3.35835 40.8309 3.36135 40.7304C3.367 40.5274 3.37423 40.324 3.38149 40.1209C3.39676 39.6937 3.41496 39.2664 3.43671 38.8394C3.47988 37.984 3.54153 37.1302 3.62458 36.2773C3.91694 33.282 4.37245 30.2967 5.31213 27.431C5.54447 26.7225 5.80578 26.0186 6.10355 25.3359C6.39151 24.6759 6.76095 24.0493 7.30824 23.5826C7.81205 23.1531 8.40272 22.8567 8.98977 22.5687L9.06314 22.5327C9.7212 22.2105 10.3774 21.8654 11.0669 21.619C11.0514 21.6216 11.0362 21.6242 11.0231 21.6292C11.008 21.6348 10.9985 21.6148 11.0076 21.6034C11.0459 21.5572 11.0612 21.5103 11.1055 21.4645C11.136 21.4329 11.1678 21.4028 11.2006 21.3737L11.2478 21.3325C11.3342 21.2575 11.4251 21.1808 11.5355 21.1519C11.6915 21.1112 11.7722 21.2553 11.731 21.3716C11.7529 21.3406 11.8139 21.3475 11.8308 21.3885C12.3813 22.7403 12.7564 24.1784 13.4836 25.4486C14.0204 26.3869 14.7309 27.2459 15.6589 27.7916C16.1575 28.0848 16.7251 28.3036 17.3062 28.3211C17.8278 28.3366 18.3257 28.1832 18.7616 27.8867C19.6067 27.3122 20.1437 26.3364 20.5205 25.3958C20.9348 24.3603 21.2215 23.2622 21.3785 22.1537C20.7945 22.1823 20.1709 21.9295 19.7713 21.4959C19.561 21.2678 19.4015 20.9865 19.3166 20.6837C19.2308 20.3783 19.2494 20.1241 19.3418 19.8259ZM14.42 19.1952C14.4879 19.0619 14.6446 19.0132 14.775 19.0621C14.9198 19.1163 14.9664 19.2579 14.9497 19.404C14.9303 19.5751 14.8285 19.7629 14.7493 19.9146C14.6665 20.0733 14.5584 20.2206 14.4463 20.3587C14.2351 20.6191 14.0082 20.8552 13.7369 21.051C13.4667 21.2458 13.1596 21.3954 12.8422 21.484L12.7667 21.5048C12.5198 21.5719 12.1681 21.651 11.9578 21.5193C11.9476 21.513 11.9475 21.4993 11.9571 21.4924C12.067 21.4082 12.2165 21.3887 12.3443 21.3464C12.4837 21.2999 12.6233 21.2477 12.756 21.1839C13.0182 21.0576 13.2679 20.8943 13.4892 20.7021C13.7114 20.5094 13.9252 20.2811 14.0707 20.0212C14.1439 19.8909 14.2055 19.7545 14.2646 19.6173C14.3244 19.4797 14.3523 19.328 14.42 19.1952Z" fill="black"/>
<path fill-rule="evenodd" clip-rule="evenodd" d="M21.8782 10.3437C21.9051 10.0054 21.4991 9.11938 21.5128 9.30147C20.8736 8.34732 19.6638 8.00527 18.6203 7.71912C16.4033 7.04874 14.7091 8.00968 13.2043 9.66094C12.3142 10.5687 11.4709 11.5774 11.0433 12.8061C10.2003 15.1511 11.6158 17.7425 13.696 18.7768C13.8639 18.8634 14.0467 18.9447 14.2071 19.0506C15.0683 19.5255 16.0692 19.6655 17.0202 19.8522C18.7995 20.2068 21.0163 19.9318 22.0157 18.1632C22.6922 16.9093 22.4673 15.4253 22.378 14.0628C22.2651 12.8702 22.0856 11.5243 21.8782 10.3437Z" fill="white"/>
<path fill-rule="evenodd" clip-rule="evenodd" d="M12.3383 7.26878C13.4563 6.12791 15.136 5.53557 16.6863 5.57535C17.5258 5.5969 18.3391 5.78497 19.1061 6.12993C19.3459 6.2378 19.5801 6.36566 19.7971 6.51828C19.9424 6.58224 20.0847 6.65197 20.2227 6.72836C20.9139 7.11065 21.4559 7.70719 21.8111 8.42475C21.9807 8.76724 22.1167 9.12987 22.1981 9.50554L22.2113 9.56739C22.2526 9.75589 22.3314 10.0034 22.2441 10.1841C22.1862 10.304 22.0605 10.3826 21.9396 10.3768C21.9685 10.485 22.0026 10.593 22.0254 10.7021L22.0875 10.9997C22.0978 11.0493 22.1081 11.0988 22.1182 11.1484C22.1783 11.444 22.2342 11.7394 22.2804 12.0378C22.3772 12.6591 22.4661 13.2821 22.5465 13.9061C22.604 14.3527 22.6585 14.7996 22.7119 15.2464L22.7439 15.5146C22.7987 15.9762 22.8442 16.442 22.8264 16.9082C22.7993 17.6073 22.6066 18.2511 22.2145 18.783C22.2555 18.877 22.2712 18.9841 22.3032 19.1018C22.3474 19.2645 22.4038 19.4234 22.4635 19.581C22.4911 19.6427 22.5188 19.7044 22.5463 19.7664L22.6184 19.9304L22.6741 20.0376C22.7344 20.1543 22.793 20.2728 22.8314 20.3944C23.0633 20.5121 23.2554 20.7107 23.2715 20.9912C23.286 21.2448 23.1645 21.5179 22.9514 21.6548C22.741 21.7902 22.5198 21.7474 22.313 21.6569C22.1361 21.7164 21.9454 21.7298 21.7674 21.6789C21.6346 21.8102 21.4615 21.9036 21.2676 21.934C20.9754 21.9798 20.6951 21.9051 20.4235 21.8034L20.4046 21.7964C20.3961 21.7932 20.3876 21.7899 20.3794 21.7865C20.0699 21.7819 19.7587 21.6668 19.5339 21.4515C19.4606 21.3818 19.3969 21.3014 19.3447 21.2108C19.1555 20.8806 19.117 20.4687 19.2866 20.1289C19.2485 20.1319 19.2102 20.1348 19.1719 20.1373C18.6633 20.1697 18.1528 20.1607 17.6442 20.1438L17.5245 20.1396C17.1953 20.1267 16.7094 20.0862 16.6898 19.6677C16.6871 19.6142 16.7398 19.5721 16.7893 19.5847C16.9773 19.6324 17.1629 19.7113 17.357 19.7352C17.611 19.7667 17.873 19.7619 18.1291 19.7677L18.2027 19.7694C18.7186 19.7805 19.253 19.7798 19.7573 19.6571C20.1338 19.5658 20.5245 19.4097 20.867 19.2214C21.1956 19.0404 21.4926 18.808 21.7292 18.5097C22.2507 17.8538 22.2994 16.9521 22.2531 16.1466C22.1975 15.1845 22.0636 14.2266 21.9775 13.267L21.9388 12.8359C21.9067 12.4763 21.8764 12.1163 21.8587 11.7561C21.8457 11.4932 21.8433 11.2292 21.838 10.966C21.8355 10.8346 21.8305 10.7026 21.8301 10.5711C21.83 10.4971 21.8366 10.4247 21.8409 10.3522C21.8121 10.3379 21.7851 10.3175 21.7605 10.2901C21.7411 10.2685 21.726 10.2454 21.7153 10.2218C21.5937 10.1896 21.5366 10.1433 21.4557 10.0366C21.3874 9.94677 21.3105 9.86418 21.2286 9.78711C21.0543 9.62333 20.8564 9.49134 20.6479 9.37766C20.217 9.14254 19.7477 8.99165 19.2753 8.87081C18.552 8.68608 17.8034 8.60411 17.0704 8.46097C16.8767 8.75602 16.6708 9.04286 16.4549 9.32104C15.7814 10.1887 15.0038 10.9685 14.1672 11.6687C13.9968 11.8114 13.8242 11.9523 13.649 12.0891C13.423 12.4661 13.1943 12.8414 12.9622 13.2143L12.8625 13.374L12.8608 13.3771C12.8473 13.3998 12.8342 13.4226 12.8212 13.4453C12.7936 13.4936 12.7624 13.5403 12.7292 13.5857C12.7077 13.6201 12.6858 13.6544 12.6637 13.6889C12.7083 13.7116 12.7491 13.7375 12.7812 13.7668C12.8469 13.8267 12.8386 13.926 12.7868 13.9909C12.6198 14.2012 12.3409 13.9444 12.1411 13.8805C11.9283 13.9551 11.756 14.2237 11.672 14.4275C11.5511 14.7209 11.5084 15.0713 11.574 15.3824C11.6342 15.6667 11.7833 15.9089 12.0249 16.0557C12.0335 16.0608 12.0427 16.0661 12.0516 16.0707C12.0519 16.0715 12.0519 16.0715 12.0522 16.071C12.0604 16.0761 12.069 16.0808 12.0775 16.0852C12.1906 16.1445 12.3142 16.1776 12.4415 16.1821C12.5144 16.185 12.5903 16.1782 12.6633 16.1849C12.7382 16.1911 12.8007 16.2244 12.8729 16.2405C12.9526 16.2587 13.0065 16.3663 12.9585 16.4415C12.9348 16.4787 12.9124 16.5142 12.8882 16.5459C12.9726 16.6422 13.0465 16.7491 13.1134 16.8511C13.205 16.9907 13.2867 17.1394 13.3617 17.2914C13.4296 17.3779 13.4946 17.4662 13.5577 17.5566C13.9153 18.0697 14.1935 18.6453 14.3707 19.2509C14.5462 19.8498 14.6634 20.5254 14.5302 21.1475C14.4075 21.7199 14.0197 22.2037 13.4291 22.2546C13.3059 22.265 13.1843 22.255 13.0692 22.2268C12.8226 22.3947 12.5139 22.4855 12.2361 22.5046C12.0114 22.5199 11.7639 22.4797 11.5767 22.3462C11.3612 22.4512 11.1262 22.5148 10.921 22.5345C10.6913 22.5566 10.449 22.5004 10.2583 22.3793C10.0838 22.5427 9.89453 22.6819 9.67803 22.7806C9.30572 22.9499 8.85756 22.9461 8.50724 22.7242C8.15628 22.502 7.97016 22.0875 8.06523 21.6667C8.1527 21.2788 8.45073 20.9861 8.73127 20.7332L8.78672 20.6835C9.06428 20.4357 9.34483 20.1955 9.51845 19.854C9.70272 19.4917 9.76295 19.0761 9.77202 18.6729C9.79137 17.7851 9.59419 16.9131 9.51888 16.0333C9.44125 15.1246 9.44925 14.2103 9.54741 13.3022C9.73824 11.5383 10.3126 9.79566 11.3952 8.38836C11.5518 8.18472 11.72 7.98998 11.8978 7.80475C12.0324 7.61257 12.1786 7.43174 12.3383 7.26878ZM27.4408 16.7801C27.4469 16.7802 27.4528 16.7803 27.4583 16.7825C27.4621 16.784 27.4653 16.7864 27.4682 16.7891L27.4961 16.8162C27.5062 16.8258 27.5058 16.841 27.497 16.8514C27.4893 16.8607 27.475 16.8615 27.4655 16.8549L27.4627 16.8526L27.4338 16.8245C27.4307 16.8213 27.428 16.8176 27.4265 16.8129C27.4251 16.8082 27.425 16.8029 27.4244 16.798C27.4239 16.7891 27.4321 16.7804 27.4408 16.7801ZM12.1966 14.5873C12.454 14.4976 12.7699 14.679 12.9296 14.8767C13.0097 14.9757 13.0352 15.1144 12.9381 15.218C12.8555 15.3061 12.6902 15.3274 12.6058 15.2295C12.5102 15.1179 12.4306 14.9616 12.2961 14.8927C12.1502 14.8177 11.9579 14.8443 11.9288 15.0401C11.9237 15.0733 11.8775 15.0639 11.8749 15.0344C11.8574 14.8379 12.0207 14.6484 12.1966 14.5873Z" fill="black"/>
<path fill-rule="evenodd" clip-rule="evenodd" d="M19.1872 17.7049C18.9673 17.6212 18.7693 17.4756 18.6226 17.286C18.5716 17.2199 18.5569 17.149 18.5657 17.0833C18.5755 17.0095 18.6162 16.9414 18.6727 16.8948C18.7293 16.8481 18.8011 16.8234 18.8712 16.8323C18.9321 16.84 18.9935 16.872 19.043 16.9413L19.0534 16.9551C19.1407 17.0697 19.2531 17.1621 19.3799 17.22C19.5022 17.2757 19.6378 17.2989 19.7773 17.2778C20.0426 17.2378 20.2225 17.0833 20.4125 16.8754C20.4359 16.8492 20.4595 16.8222 20.4832 16.7948C20.4979 16.7702 20.5188 16.7538 20.5422 16.745C20.5683 16.7349 20.598 16.7345 20.6254 16.7433C20.652 16.7517 20.6759 16.7689 20.6921 16.7921C20.7077 16.8141 20.7168 16.8417 20.7148 16.8739C20.7022 17.0828 20.6008 17.2725 20.454 17.4237C20.2911 17.5918 20.0723 17.7116 19.8648 17.7582C19.6361 17.8095 19.4012 17.7865 19.1872 17.7049ZM19.8913 14.463C20.1396 14.6074 20.5207 14.9508 20.2672 15.3387C19.9661 15.6836 19.5109 15.316 19.2871 15.1504C19.0801 15.0232 18.86 15.3764 19.0528 15.5266C20.6695 16.68 21.2586 14.4558 20.0104 14.2792C19.873 14.2597 19.826 14.418 19.8913 14.463ZM17.0129 13.1559C17.0313 12.8102 17.54 12.7142 17.5992 13.0537C17.6523 13.3577 17.6056 13.6402 17.4787 13.92C17.3574 14.1874 17.0329 14.0759 17.0026 13.8374C16.9621 13.5176 17.0014 13.3709 17.0129 13.1559ZM20.8952 12.8687C20.9639 12.7704 21.065 12.7014 21.1891 12.7341C21.5767 12.8364 21.4773 13.4021 21.349 13.6801C21.2793 13.8312 21.0429 13.8771 20.9324 13.75C20.7523 13.543 20.6581 13.12 20.875 12.9023C20.8807 12.8913 20.8872 12.8801 20.8952 12.8687ZM17.4165 11.632L17.4769 11.6189C17.664 11.579 17.897 11.5388 18.0338 11.6896C18.1063 11.7696 18.1345 11.922 18.0416 12.0042C17.8783 12.1488 17.6926 12.1013 17.4931 12.12C17.3287 12.1354 17.1711 12.169 17.0136 12.2211C16.6682 12.3354 16.3893 12.532 16.0972 12.7474C16.0588 12.7756 16.0177 12.7257 16.0354 12.6875C16.1984 12.3359 16.5238 12.0405 16.8526 11.8559C17.028 11.7573 17.2206 11.6739 17.4165 11.632ZM20.5069 11.37L20.5536 11.3782C21.0624 11.4695 21.7254 11.6641 21.9779 12.1672C21.9887 12.2391 21.9794 12.255 21.9719 12.2654L21.9693 12.2688C21.9631 12.2777 21.9582 12.2898 21.928 12.3007C21.9195 12.2989 21.9109 12.297 21.9022 12.295C21.7916 12.2692 21.7038 12.2314 21.6185 12.192L21.5262 12.1489C21.419 12.0992 21.3109 12.0514 21.1967 12.0174C20.9531 11.9447 20.7034 11.8962 20.4503 11.8745C20.3954 11.8698 20.3424 11.8526 20.2999 11.8215C20.2598 11.792 20.2287 11.7503 20.2135 11.6939C20.1939 11.621 20.1976 11.5652 20.2342 11.4975C20.262 11.4467 20.3023 11.4107 20.3493 11.3892C20.3971 11.3673 20.4519 11.3607 20.5069 11.37Z" fill="black"/>
<path fill-rule="evenodd" clip-rule="evenodd" d="M22.7569 15.7227C22.7105 15.5924 22.4893 15.6115 22.5068 15.7663C22.5268 15.9429 22.4726 16.1426 22.309 16.2345C22.1377 16.3305 21.9405 16.2562 21.8308 16.1053C21.7354 15.974 21.6683 15.8301 21.5495 15.7169C21.4391 15.6116 21.3062 15.5321 21.1617 15.4871C21.0491 15.4521 20.9331 15.4457 20.8212 15.4625C20.5398 15.4072 20.2194 15.5658 20.0507 15.7953C20.0399 15.8101 20.0299 15.8252 20.0202 15.8404C20.0023 15.8171 19.9835 15.7937 19.9638 15.7709C19.9129 15.712 19.8513 15.7011 19.7963 15.7194C19.4751 15.49 19.0325 15.4734 18.6798 15.7025C18.3972 15.8863 18.1664 16.1506 17.8142 16.1826C17.5351 16.2081 17.2266 16.055 17.199 15.741C17.1847 15.577 16.9628 15.4475 16.844 15.604C16.5942 15.9327 16.5533 16.3595 16.7056 16.7414C16.8663 17.1445 17.18 17.4214 17.5722 17.5772C17.996 17.7454 18.4886 17.7919 18.9417 17.7619C19.3933 17.7319 19.7998 17.5395 20.0627 17.1512C20.0942 17.1048 20.1216 17.0579 20.1455 17.0105C20.4186 17.3467 20.837 17.4774 21.2596 17.4734C21.7017 17.469 22.2221 17.3716 22.5256 17.009C22.8183 16.6597 22.9095 16.152 22.7569 15.7227Z" fill="black"/>
</g>
<defs>
<clipPath id="clip0_149_5403">
<rect width="31" height="32" rx="15.5" fill="white"/>
</clipPath>
</defs>
</svg>
