<svg width="100" height="104" viewBox="0 0 100 104" fill="none" xmlns="http://www.w3.org/2000/svg">
<g clip-path="url(#clip0_816_3912)">
<rect width="100" height="103.704" rx="50" fill="url(#paint0_linear_816_3912)"/>
<path fill-rule="evenodd" clip-rule="evenodd" d="M14.4101 133.212C14.2682 133.222 14.3119 133.178 14.3638 133.165C14.3793 133.181 14.3947 133.197 14.4101 133.212ZM18.6847 136.287C22.6668 136.634 26.631 136.049 30.5707 135.465C38.5593 134.572 46.5505 136.079 54.5567 135.253C64.568 134.466 74.597 133.295 84.6193 134.325C87.3839 134.294 91.8094 134.909 90.6993 130.527C89.1047 119.217 87.0677 107.979 84.9064 96.7758C83.1537 90.514 82.77 79.5907 78.2882 75.3507C77.6339 74.7701 75.2921 72.8995 74.6793 72.659C71.6353 71.605 66.1777 70.8909 63.8748 68.5119C61.9808 65.4011 62.7195 61.0399 59.8321 58.5834C57.3055 56.5829 51.9135 57.2136 49.3056 58.8736C47.2515 60.3453 46.991 63.0725 45.7391 65.1267C45.4302 65.6191 44.6961 66.806 44.2749 67.1956C43.2528 68.2741 39.5992 69.498 38.5413 69.7362C32.5747 71.2158 29.6034 72.1048 24.9871 76.3864C12.9801 89.8146 15.2913 112.74 12.2976 129.854C12.2039 131.727 11.1664 134.301 13.1579 135.435C14.8682 136.212 16.8528 136.051 18.6847 136.287Z" fill="white"/>
<path fill-rule="evenodd" clip-rule="evenodd" d="M62.4039 64.2591C62.4177 64.2142 62.4862 64.2041 62.4978 64.2558C62.6853 65.0442 63.0219 65.9044 63.3599 66.6384C63.703 67.3815 64.1638 68.0592 64.7385 68.6283C65.9433 69.8205 67.4676 70.3303 69.1245 70.2732L69.164 70.2729C69.17 70.2155 69.1775 70.1575 69.184 70.0996L69.1932 70.013C69.3154 68.8263 70.6746 68.8128 70.9613 69.6952C71.0973 69.7349 71.2328 69.7746 71.3678 69.8158L71.3948 69.825C71.6218 69.9054 72.3933 70.2705 72.5306 70.1615C72.8333 69.9222 73.1916 70.172 73.3153 70.4597C73.5183 70.9315 73.5649 71.5216 73.6394 72.0388L73.6495 72.1053L73.6608 72.1861C78.0477 73.203 80.604 77.6206 81.9544 81.7256C82.6861 83.9509 83.1857 86.2554 83.687 88.5471C84.2234 90.9983 84.7229 93.457 85.2479 95.9097C86.2829 100.743 87.2688 105.589 88.1414 110.458L88.3947 111.872C89.1944 116.348 89.9767 120.823 90.6524 125.324C91.0171 127.751 91.3626 130.181 91.6982 132.613C91.7583 133.047 91.8179 133.481 91.877 133.915L91.9657 134.566C92.0448 135.151 92.1688 135.727 91.9011 136.286C91.322 137.497 89.4783 137.553 89.3361 136.033C89.3079 135.73 89.4016 135.495 89.5616 135.327L89.5585 135.302C89.5567 135.287 89.5544 135.275 89.5538 135.27C89.492 134.97 89.4693 134.65 89.4287 134.344C89.3396 133.694 89.2524 133.043 89.1647 132.391C88.9952 131.15 88.8243 129.909 88.649 128.668C88.2935 126.153 87.9218 123.64 87.5309 121.132L87.1441 118.651C85.8503 110.381 84.5105 102.115 82.8136 93.9257C82.3519 91.696 81.8784 89.4707 81.3941 87.2464C80.9349 85.1401 80.426 83.0448 79.6929 81.0216C78.4962 77.7164 76.47 74.6526 73.7104 72.5524C73.7627 72.9703 73.8031 73.3906 73.852 73.809C73.9777 74.8824 74.1094 75.9545 74.2425 77.0271C74.7255 80.9118 75.3458 84.7856 76.3351 88.5663C76.8252 90.4397 77.4115 92.2847 78.1148 94.0827C78.4615 94.9681 78.8375 95.8408 79.2467 96.6964C79.6522 97.5419 80.3482 98.4371 80.4122 99.3931C80.4419 99.8358 80.0029 100.245 79.5861 100.212C79.8236 101.969 79.977 103.747 80.1358 105.503C80.3673 108.045 80.5649 110.594 80.8245 113.133C81.2892 117.683 81.8437 122.222 82.4189 126.757C82.5329 127.655 82.6548 128.553 82.7757 129.451L82.8768 130.205C82.9447 130.694 83.0436 131.279 82.8018 131.723C83.0414 132.277 83.2097 132.848 83.3144 133.447C83.4464 134.191 83.0529 135.044 82.2062 135.041C82.1103 135.042 82.0137 135.036 81.9176 135.029C81.138 135.244 80.3604 135.436 79.5462 135.47C78.5068 135.514 77.4641 135.529 76.4243 135.558C74.4124 135.615 72.4005 135.671 70.3886 135.724C63.1048 135.919 55.8191 136.178 48.5353 136.312L45.6208 136.366C42.949 136.416 40.2765 136.458 37.6046 136.451C35.7646 136.447 33.9246 136.441 32.0853 136.429L31.7109 136.427C30.0882 136.423 28.4644 136.449 26.8548 136.248C26.8144 136.243 26.796 136.2 26.8013 136.162L26.8033 136.152L26.733 136.138C26.6967 136.321 25.8325 135.589 25.8263 135.084C25.464 134.625 25.6094 133.866 25.6337 133.32C25.6571 132.787 25.69 132.253 25.7177 131.72C25.7765 130.581 25.8227 129.442 25.8836 128.304C26.1294 123.714 26.3257 119.113 26.4136 114.519C26.4581 112.203 26.4828 109.886 26.5116 107.571C26.5244 106.516 26.5522 105.461 26.6265 104.409L26.646 104.147C26.7295 103.08 26.6911 101.937 27.0454 100.922C27.0503 100.908 27.068 100.908 27.0736 100.921C27.4807 101.883 27.545 103.014 27.6484 104.081C27.6619 104.076 27.6755 104.074 27.69 104.07C28.2129 103.792 28.7416 103.539 29.2348 103.2C29.3016 103.155 29.3663 103.107 29.432 103.061C30.1591 100.543 31.0123 98.061 31.792 95.557C34.3109 87.4613 35.6009 78.8883 35.725 70.4047C33.6877 71.8562 31.4584 73.008 29.2939 74.2372L29.0912 74.3525C26.9594 75.5688 24.9232 76.936 23.434 78.9681C22.1359 80.7382 21.3116 82.868 20.5417 84.9203C19.715 87.1258 18.976 89.367 18.3053 91.6262C16.9446 96.2101 15.9186 100.894 15.1442 105.616C14.3799 110.276 13.8669 114.962 13.5625 119.673C13.4073 122.076 13.2709 124.48 13.1659 126.887C13.1122 128.105 13.0679 129.324 13.0289 130.544C13.01 131.135 12.9995 131.729 12.9764 132.321C12.9617 132.662 12.9662 133.014 12.8656 133.341C12.7814 133.613 12.6261 133.845 12.4817 134.088C12.2178 134.532 11.5265 134.635 11.2561 134.131L11.139 133.913C10.984 133.622 10.8417 133.329 10.8133 132.988C10.7866 132.665 10.8169 132.326 10.8266 132.001C10.845 131.343 10.8685 130.684 10.8921 130.026C10.9417 128.642 11.0008 127.258 11.0713 125.874C11.2112 123.103 11.4108 120.337 11.6794 117.573C12.6251 107.869 14.0971 98.1964 17.1312 88.9114C17.8814 86.6157 18.7251 84.3351 19.6864 82.1229C20.616 79.9843 21.8085 77.9539 23.5747 76.4415C25.2006 75.0494 27.1066 74.0887 29.0009 73.1549L29.2377 73.0383C31.3612 71.9939 33.4787 70.8751 35.7034 70.0762C35.6534 70.0846 35.6045 70.0929 35.5622 70.1092C35.5134 70.1273 35.4827 70.0625 35.5121 70.0257C35.6358 69.8759 35.6853 69.724 35.8281 69.5756C35.9266 69.4731 36.0294 69.3755 36.1352 69.2815L36.2875 69.148C36.5663 68.9049 36.8596 68.6562 37.2157 68.5625C37.7193 68.4305 37.9794 68.8972 37.8464 69.2741C37.9171 69.1736 38.1141 69.1958 38.1685 69.3286C39.9435 73.7077 41.1527 78.3665 43.4981 82.481C45.2294 85.5204 47.5211 88.3028 50.5149 90.07C52.1232 91.0195 53.9546 91.7278 55.8293 91.7841C57.5124 91.8338 59.1189 91.3364 60.5255 90.3753C63.2527 88.5132 64.9861 85.3514 66.2026 82.3036C67.5401 78.9484 68.4662 75.3906 68.9735 71.7989C67.0891 71.892 65.0775 71.0737 63.7884 69.6694C63.11 68.9304 62.5956 68.0192 62.3218 67.0383C62.0453 66.0489 62.1057 65.2253 62.4039 64.2591ZM46.5241 62.2205C46.7435 61.7885 47.249 61.6304 47.6698 61.7887C48.137 61.9643 48.2872 62.4231 48.233 62.8963C48.1705 63.4509 47.8417 64.0592 47.5862 64.5507C47.3189 65.065 46.9701 65.5423 46.6082 65.99C45.9266 66.8338 45.1942 67.5988 44.3186 68.2334C43.4469 68.8649 42.4558 69.3499 41.4318 69.637L41.1881 69.7048C40.3915 69.9221 39.2566 70.1789 38.578 69.7523C38.5452 69.732 38.545 69.6876 38.5758 69.6651C38.9306 69.3923 39.4129 69.3289 39.8253 69.1919C40.2751 69.0409 40.7255 68.8719 41.1537 68.665C41.9997 68.2555 42.8057 67.7264 43.5199 67.1035C44.237 66.479 44.927 65.739 45.3964 64.897C45.6329 64.4746 45.8317 64.0327 46.0226 63.5879C46.2154 63.1421 46.3057 62.6509 46.5241 62.2205Z" fill="black"/>
<path fill-rule="evenodd" clip-rule="evenodd" d="M70.5814 33.5189C70.6683 32.4228 69.3591 29.5526 69.4032 30.1426C67.3415 27.0518 63.438 25.9447 60.0713 25.0186C52.9185 22.8487 47.4514 25.9636 42.5946 31.3149C39.722 34.2568 37.0001 37.5257 35.6195 41.5071C32.8978 49.1054 37.4629 57.5002 44.1742 60.8492C44.7159 61.1296 45.3056 61.3929 45.8231 61.7359C48.6013 63.2736 51.8307 63.7264 54.899 64.3304C60.64 65.4777 67.7929 64.5844 71.019 58.8537C73.2025 54.7904 72.478 49.9826 72.1911 45.5682C71.8277 41.7043 71.2497 37.3437 70.5814 33.5189Z" fill="white"/>
<path fill-rule="evenodd" clip-rule="evenodd" d="M39.8025 23.5671C43.4106 19.8699 48.8304 17.9493 53.8322 18.0768C56.5409 18.1458 59.165 18.7544 61.6393 19.8712C62.4128 20.2205 63.1685 20.6345 63.8684 21.1287C64.3373 21.3358 64.7962 21.5616 65.2413 21.809C67.4714 23.0469 69.2197 24.979 70.3649 27.3034C70.9118 28.4128 71.3505 29.5875 71.6128 30.8045L71.6552 31.0049C71.7884 31.6155 72.0424 32.4173 71.7606 33.003C71.5739 33.3913 71.1683 33.6461 70.7782 33.6274C70.8714 33.978 70.9813 34.3279 71.0547 34.6813L71.2549 35.6452C71.288 35.8058 71.3211 35.9665 71.3538 36.1271C71.5473 37.0847 71.7276 38.0416 71.8764 39.0083C72.1883 41.0211 72.4747 43.0392 72.7334 45.061C72.9187 46.5076 73.0942 47.9555 73.2662 49.4031L73.3691 50.2717C73.5457 51.7671 73.692 53.2763 73.6341 54.7865C73.5463 57.0516 72.9241 59.1374 71.6586 60.8609C71.7907 61.1656 71.8412 61.5124 71.9445 61.8936C72.087 62.421 72.2687 62.9357 72.4612 63.446C72.5502 63.646 72.6396 63.846 72.7281 64.0466L72.9607 64.5779L73.1403 64.9253C73.335 65.3033 73.5238 65.6871 73.6477 66.0809C74.3958 66.462 75.0152 67.1053 75.0672 68.014C75.1136 68.8356 74.7214 69.7206 74.0337 70.1643C73.3547 70.603 72.6413 70.4647 71.9741 70.1716C71.4033 70.3646 70.7878 70.4081 70.2137 70.2435C69.7851 70.6689 69.2264 70.9717 68.6009 71.0702C67.6582 71.2191 66.7539 70.9772 65.8776 70.6481L65.8167 70.6252C65.7893 70.6149 65.7618 70.6042 65.7353 70.5933C64.7367 70.5788 63.7328 70.2062 63.0077 69.5089C62.7712 69.2829 62.5656 69.0227 62.3972 68.729C61.787 67.6597 61.6633 66.3253 62.2108 65.2241C62.0879 65.234 61.9641 65.2434 61.8407 65.2513C60.1998 65.3568 58.5526 65.3283 56.9117 65.274L56.5253 65.2605C55.4632 65.2191 53.8956 65.0882 53.8327 63.7323C53.824 63.5591 53.9942 63.4224 54.1539 63.4633C54.7604 63.6176 55.359 63.8733 55.9853 63.9503C56.8046 64.0523 57.6502 64.0364 58.4764 64.0549L58.7138 64.0604C60.3785 64.096 62.1025 64.0933 63.7298 63.6953C64.9447 63.3991 66.2055 62.893 67.3104 62.2826C68.3709 61.6958 69.3294 60.9426 70.0928 59.9762C71.7761 57.8506 71.9338 54.9293 71.7852 52.3198C71.6064 49.203 71.1752 46.0996 70.8982 42.9908L70.7735 41.5941C70.6702 40.4294 70.5729 39.2629 70.516 38.096C70.4744 37.2442 70.4668 36.389 70.4498 35.5364C70.4418 35.1106 70.4259 34.6829 70.4248 34.2568C70.4244 34.0174 70.4458 33.7826 70.4598 33.5479C70.3667 33.5016 70.2796 33.4355 70.2003 33.3467C70.1377 33.2766 70.0889 33.2018 70.0544 33.1253C69.6622 33.0214 69.4781 32.8714 69.217 32.5258C68.9967 32.2347 68.7489 31.9672 68.4847 31.7176C67.9223 31.1872 67.2839 30.7597 66.6114 30.3916C65.2211 29.6303 63.7071 29.1419 62.183 28.7508C59.8495 28.153 57.4341 27.8881 55.0693 27.4251C54.444 28.3812 53.7796 29.3106 53.0828 30.2121C50.9091 33.0238 48.3995 35.5506 45.6998 37.82C45.1499 38.2826 44.5931 38.739 44.0274 39.1826C43.298 40.4041 42.56 41.6201 41.8109 42.8285L41.4888 43.3459L41.4836 43.3558C41.44 43.4296 41.3978 43.5034 41.3556 43.5771C41.2665 43.7336 41.1659 43.8846 41.0587 44.0318C40.9893 44.1435 40.9188 44.2547 40.8474 44.3664C40.9911 44.4399 41.1227 44.5236 41.2264 44.6185C41.4383 44.8127 41.4116 45.1341 41.2442 45.3447C40.7052 46.026 39.8055 45.1945 39.1611 44.9874C38.4745 45.2294 37.9182 46.0997 37.6471 46.76C37.2568 47.7107 37.1186 48.8461 37.3303 49.8538C37.5241 50.7749 38.0052 51.5593 38.7846 52.0348C38.8122 52.0512 38.8417 52.0685 38.8704 52.0833C38.8715 52.0858 38.8715 52.0858 38.8725 52.0843C38.899 52.1007 38.9265 52.116 38.9541 52.1304C39.3191 52.3223 39.7177 52.4293 40.1284 52.444C40.3637 52.4531 40.6087 52.4312 40.8441 52.4526C41.0859 52.4727 41.2873 52.5805 41.5204 52.6325C41.7775 52.6914 41.9512 53.04 41.7965 53.2838C41.7198 53.4044 41.6475 53.5192 41.5694 53.622C41.8416 53.934 42.08 54.2803 42.2958 54.6107C42.5912 55.0627 42.8547 55.5445 43.0967 56.0367C43.3156 56.3169 43.5254 56.603 43.7289 56.896C44.8821 58.5577 45.7793 60.4224 46.3505 62.3842C46.9163 64.3243 47.2938 66.5128 46.8637 68.5286C46.4672 70.383 45.2157 71.9509 43.3103 72.1161C42.9126 72.15 42.5202 72.1178 42.1491 72.0267C41.3531 72.5706 40.3571 72.8652 39.4609 72.9273C38.7357 72.9772 37.9374 72.8469 37.3336 72.4149C36.6382 72.7552 35.8798 72.9614 35.2176 73.0254C34.4766 73.0973 33.6947 72.9155 33.0796 72.5231C32.5164 73.0527 31.9057 73.5038 31.2071 73.8238C30.0057 74.3728 28.5598 74.3606 27.4297 73.6423C26.2975 72.9225 25.6973 71.5798 26.0044 70.2165C26.2869 68.9597 27.2487 68.0114 28.1541 67.1917L28.333 67.0307C29.2287 66.2276 30.1341 65.4492 30.6945 64.3425C31.2894 63.1687 31.484 61.8221 31.5136 60.516C31.5767 57.6398 30.9412 54.8146 30.6989 51.9644C30.4491 49.0205 30.4757 46.0583 30.7931 43.1165C31.4102 37.4016 33.2647 31.7554 36.7586 27.1951C37.2641 26.5352 37.807 25.9041 38.3808 25.3039C38.8153 24.6811 39.2871 24.0952 39.8025 23.5671ZM88.5225 54.3674C88.5423 54.3677 88.5611 54.3681 88.579 54.3751C88.591 54.3798 88.6016 54.3876 88.6107 54.3965L88.7009 54.4841C88.7333 54.5152 88.732 54.5647 88.7037 54.5984C88.6787 54.6283 88.6328 54.631 88.6021 54.6096L88.593 54.6023L88.4998 54.5111C88.4896 54.5007 88.481 54.4888 88.4761 54.4737C88.4718 54.4585 88.4714 54.4412 88.4695 54.4254C88.4678 54.3964 88.4943 54.3684 88.5225 54.3674ZM39.3394 47.2774C40.17 46.9865 41.1891 47.5739 41.7042 48.2143C41.9628 48.5349 42.045 48.9843 41.7314 49.3199C41.4649 49.6053 40.9317 49.6745 40.6594 49.3574C40.351 48.9962 40.0941 48.4897 39.6603 48.2665C39.1895 48.0237 38.5691 48.1103 38.475 48.7444C38.4588 48.8522 38.3097 48.8217 38.3012 48.726C38.2448 48.0895 38.7718 47.4754 39.3394 47.2774Z" fill="black"/>
<path fill-rule="evenodd" clip-rule="evenodd" d="M61.8922 57.3744C61.183 57.1035 60.5441 56.6319 60.0709 56.0177C59.9063 55.8038 59.8591 55.5741 59.8876 55.3611C59.9193 55.122 60.0504 54.9013 60.2328 54.7504C60.4156 54.5989 60.6471 54.5187 60.8734 54.5476C61.0699 54.5724 61.2679 54.6763 61.4278 54.9005L61.461 54.9453C61.7427 55.3165 62.1053 55.6159 62.5146 55.8033C62.9089 55.9836 63.3466 56.0587 63.7966 55.9903C64.6528 55.8602 65.2332 55.3597 65.8465 54.6859C65.922 54.601 65.9981 54.5136 66.0746 54.4246C66.1221 54.3447 66.1895 54.2918 66.265 54.2631C66.3493 54.2305 66.4453 54.2292 66.5335 54.2578C66.6193 54.2849 66.6964 54.3405 66.7487 54.4157C66.7989 54.487 66.8283 54.5764 66.822 54.6808C66.7812 55.3575 66.4539 55.9722 65.9801 56.4623C65.4542 57.0069 64.7483 57.3953 64.0787 57.5465C63.3407 57.7128 62.5829 57.6387 61.8922 57.3744ZM64.1665 46.8705C64.9676 47.3379 66.1971 48.4502 65.379 49.7073C64.407 50.8247 62.9386 49.6345 62.2165 49.0979C61.5489 48.6861 60.8383 49.8307 61.4603 50.3171C66.6759 54.0526 68.5785 46.8456 64.5512 46.2747C64.1078 46.2116 63.9562 46.7246 64.1665 46.8705ZM54.8804 42.6381C54.94 41.518 56.5813 41.2066 56.772 42.3062C56.9431 43.2912 56.7924 44.2067 56.3828 45.1134C55.9909 45.9796 54.9441 45.6189 54.8465 44.846C54.7162 43.81 54.843 43.3347 54.8804 42.6381ZM67.407 41.7041C67.6287 41.3854 67.9552 41.1617 68.3556 41.2677C69.606 41.5988 69.2849 43.4317 68.8706 44.3325C68.6456 44.822 67.8829 44.9708 67.5265 44.5594C66.9456 43.8886 66.6418 42.5184 67.3419 41.813C67.3603 41.7771 67.3812 41.7408 67.407 41.7041ZM56.1836 37.7004L56.3785 37.658C56.9823 37.5284 57.7341 37.3979 58.1755 37.8865C58.4094 38.1456 58.5002 38.6392 58.2005 38.9056C57.6732 39.3742 57.0743 39.2208 56.4307 39.2814C55.9 39.3315 55.3916 39.4403 54.8832 39.6093C53.7688 39.9802 52.8687 40.6173 51.926 41.3154C51.8021 41.4069 51.6695 41.2452 51.7268 41.1215C52.253 39.9822 53.303 39.0246 54.3639 38.4262C54.93 38.1068 55.5517 37.8365 56.1836 37.7004ZM66.1554 36.8487L66.306 36.8752C67.9478 37.1705 70.0867 37.8004 70.901 39.43C70.9359 39.6632 70.906 39.7146 70.8815 39.7483L70.8734 39.7595C70.8533 39.7882 70.8375 39.8274 70.7399 39.8627C70.7125 39.857 70.6847 39.8508 70.6568 39.8442C70.3 39.7607 70.0165 39.6384 69.7413 39.5108L69.4435 39.3713C69.0977 39.2103 68.7491 39.0557 68.3807 38.9454C67.5948 38.7102 66.7889 38.5534 65.9724 38.4832C65.7954 38.468 65.6243 38.4124 65.4873 38.3117C65.3578 38.2161 65.2575 38.081 65.2085 37.8984C65.1453 37.6622 65.1572 37.4812 65.2755 37.2619C65.365 37.0972 65.4952 36.9806 65.6469 36.911C65.801 36.8401 65.9781 36.8184 66.1554 36.8487Z" fill="black"/>
<path fill-rule="evenodd" clip-rule="evenodd" d="M73.4111 50.952C73.2615 50.5302 72.5477 50.5922 72.604 51.0934C72.6685 51.6654 72.4934 52.3122 71.9657 52.6098C71.4131 52.921 70.7768 52.6807 70.4231 52.1919C70.1154 51.767 69.8991 51.3009 69.5159 50.9345C69.1599 50.5935 68.731 50.3363 68.2649 50.1906C67.9017 50.0773 67.5276 50.0568 67.1666 50.1111C66.2588 49.9325 65.225 50.4463 64.6806 51.1898C64.6457 51.2377 64.6134 51.2866 64.582 51.3359C64.5244 51.2602 64.4638 51.1847 64.4002 51.1107C64.2361 50.9199 64.0373 50.8847 63.86 50.9442C62.8238 50.2015 61.3959 50.1482 60.2581 50.8905C59.3463 51.4859 58.6013 52.342 57.465 52.446C56.5647 52.5287 55.5696 52.0333 55.4809 51.0164C55.4347 50.4854 54.7189 50.0661 54.3355 50.573C53.5295 51.6378 53.3973 53.0199 53.8884 54.2568C54.4063 55.5619 55.4182 56.4583 56.6835 56.9625C58.0505 57.5069 59.6397 57.6571 61.1014 57.5595C62.5582 57.462 63.8697 56.8385 64.7184 55.5808C64.8198 55.4305 64.9084 55.2786 64.9855 55.1252C65.8664 56.2135 67.2161 56.6366 68.5791 56.6231C70.0054 56.6084 71.6843 56.2925 72.6638 55.118C73.6084 53.9864 73.903 52.3423 73.4111 50.952Z" fill="black"/>
</g>
<defs>
<linearGradient id="paint0_linear_816_3912" x1="23.1317" y1="-10.101" x2="129.918" y2="46.0392" gradientUnits="userSpaceOnUse">
<stop stop-color="#0071F2"/>
<stop offset="1" stop-color="#00B9F2"/>
</linearGradient>
<clipPath id="clip0_816_3912">
<rect width="100" height="103.704" rx="50" fill="white"/>
</clipPath>
</defs>
</svg>
