<svg width="22" height="22" viewBox="0 0 22 22" fill="none" xmlns="http://www.w3.org/2000/svg">
<g clip-path="url(#clip0_168_4301)">
<path d="M11.9166 1.88008V0.916667C11.9166 0.673551 11.82 0.440394 11.6481 0.268485C11.4762 0.0965771 11.243 0 10.9999 0C10.7568 0 10.5237 0.0965771 10.3517 0.268485C10.1798 0.440394 10.0833 0.673551 10.0833 0.916667V1.88008C8.2378 2.04553 6.47382 2.71719 4.98567 3.82105C3.49751 4.92492 2.34295 6.41814 1.64918 8.13622C0.955408 9.8543 0.749355 11.7305 1.05372 13.5582C1.35809 15.3859 2.16106 17.0941 3.37418 18.4947C2.8951 18.7317 2.49476 19.1021 2.22136 19.5614C1.94797 20.0207 1.81319 20.5492 1.83326 21.0833C1.83326 21.3264 1.92984 21.5596 2.10175 21.7315C2.27365 21.9034 2.50681 22 2.74993 22C2.99304 22 3.2262 21.9034 3.39811 21.7315C3.57002 21.5596 3.66659 21.3264 3.66659 21.0833C3.65897 20.8008 3.76041 20.5261 3.94986 20.3164C4.13931 20.1066 4.40223 19.9778 4.68409 19.9567C4.74715 19.9448 4.80864 19.9257 4.86743 19.8999C6.62333 21.2618 8.78236 22.001 11.0045 22.001C13.2267 22.001 15.3857 21.2618 17.1416 19.8999C17.1953 19.9246 17.2511 19.9443 17.3084 19.9586C17.5913 19.9779 17.8558 20.1056 18.0467 20.3152C18.2376 20.5247 18.3403 20.7999 18.3333 21.0833C18.3333 21.3264 18.4298 21.5596 18.6017 21.7315C18.7737 21.9034 19.0068 22 19.2499 22C19.493 22 19.7262 21.9034 19.8981 21.7315C20.07 21.5596 20.1666 21.3264 20.1666 21.0833C20.1867 20.5492 20.0519 20.0207 19.7785 19.5614C19.5051 19.1021 19.1048 18.7317 18.6257 18.4947C19.8388 17.0941 20.6418 15.3859 20.9461 13.5582C21.2505 11.7305 21.0444 9.8543 20.3507 8.13622C19.6569 6.41814 18.5023 4.92492 17.0142 3.82105C15.526 2.71719 13.7621 2.04553 11.9166 1.88008ZM2.74993 11.9167C2.74993 10.285 3.23378 8.68992 4.1403 7.33321C5.04682 5.97651 6.3353 4.91908 7.84279 4.29466C9.35028 3.67024 11.0091 3.50686 12.6094 3.82519C14.2098 4.14352 15.6798 4.92925 16.8336 6.08304C17.9873 7.23682 18.7731 8.70683 19.0914 10.3072C19.4097 11.9075 19.2464 13.5663 18.6219 15.0738C17.9975 16.5813 16.9401 17.8698 15.5834 18.7763C14.2267 19.6828 12.6316 20.1667 10.9999 20.1667C8.81271 20.164 6.71584 19.2939 5.16924 17.7474C3.62265 16.2008 2.7526 14.1039 2.74993 11.9167Z" fill="white"/>
<path d="M17.6139 -0.000457349C17.3708 -0.000457349 17.1377 0.0961198 16.9658 0.268028C16.7938 0.439937 16.6973 0.673094 16.6973 0.91621C16.6973 1.15932 16.7938 1.39248 16.9658 1.56439C17.1377 1.7363 17.3708 1.83288 17.6139 1.83288C17.9336 1.80858 18.2548 1.84927 18.5583 1.95248C18.8618 2.0557 19.1413 2.21932 19.3798 2.43346C19.6184 2.6476 19.8111 2.90784 19.9464 3.19848C20.0816 3.48912 20.1566 3.80414 20.1668 4.12454C20.1668 4.36766 20.2634 4.60082 20.4353 4.77272C20.6072 4.94463 20.8404 5.04121 21.0835 5.04121C21.3266 5.04121 21.5598 4.94463 21.7317 4.77272C21.9036 4.60082 22.0002 4.36766 22.0002 4.12454C21.9885 3.564 21.8651 3.01142 21.6372 2.49914C21.4093 1.98686 21.0816 1.52516 20.6732 1.14105C20.2648 0.756951 19.7838 0.458157 19.2585 0.262153C18.7332 0.0661492 18.1741 -0.0231287 17.6139 -0.000457349Z" fill="white"/>
<path d="M1.83333 4.12454C1.84355 3.80414 1.91855 3.48912 2.05381 3.19848C2.18907 2.90784 2.38178 2.6476 2.62034 2.43346C2.85889 2.21932 3.13835 2.0557 3.44184 1.95248C3.74534 1.84927 4.0666 1.80858 4.38625 1.83288C4.62936 1.83288 4.86252 1.7363 5.03443 1.56439C5.20634 1.39248 5.30292 1.15932 5.30292 0.91621C5.30292 0.673094 5.20634 0.439937 5.03443 0.268028C4.86252 0.0961198 4.62936 -0.000457349 4.38625 -0.000457349C3.82604 -0.0231287 3.26693 0.0661492 2.74164 0.262153C2.21635 0.458157 1.73542 0.756951 1.32699 1.14105C0.918562 1.52516 0.590834 1.98686 0.362982 2.49914C0.135131 3.01142 0.0117299 3.564 0 4.12454C0 4.36766 0.0965771 4.60082 0.268485 4.77272C0.440394 4.94463 0.673552 5.04121 0.916667 5.04121C1.15978 5.04121 1.39294 4.94463 1.56485 4.77272C1.73676 4.60082 1.83333 4.36766 1.83333 4.12454Z" fill="white"/>
<path d="M11.9168 10.6205V6.41667C11.9168 6.17355 11.8203 5.94039 11.6483 5.76849C11.4764 5.59658 11.2433 5.5 11.0002 5.5C10.757 5.5 10.5239 5.59658 10.352 5.76849C10.1801 5.94039 10.0835 6.17355 10.0835 6.41667V11C10.0835 11.2431 10.1802 11.4762 10.3521 11.6481L13.1021 14.3981C13.275 14.5651 13.5065 14.6575 13.7469 14.6554C13.9872 14.6533 14.2171 14.5569 14.3871 14.3869C14.557 14.217 14.6534 13.987 14.6555 13.7467C14.6576 13.5064 14.5652 13.2748 14.3982 13.1019L11.9168 10.6205Z" fill="white"/>
</g>
<defs>
<clipPath id="clip0_168_4301">
<rect width="22" height="22" fill="white"/>
</clipPath>
</defs>
</svg>
