<svg width="25" height="25" viewBox="0 0 25 25" fill="none" xmlns="http://www.w3.org/2000/svg">
<path fill-rule="evenodd" clip-rule="evenodd" d="M15.747 1.46327C15.747 2.27141 16.4021 2.92654 17.2102 2.92654L22.0735 2.92654V7.78976C22.0735 8.5979 22.7286 9.25303 23.5367 9.25303C24.3449 9.25303 25 8.5979 25 7.78976V1.46327C25 0.65513 24.3449 1.5676e-06 23.5367 1.33502e-06L17.2102 0C16.4021 -2.32581e-07 15.747 0.655129 15.747 1.46327Z" fill="white"/>
<path fill-rule="evenodd" clip-rule="evenodd" d="M23.5367 15.7469C22.7285 15.7469 22.0734 16.402 22.0734 17.2102L22.0734 22.0734L17.2102 22.0734C16.402 22.0734 15.7469 22.7285 15.7469 23.5367C15.7469 24.3448 16.402 24.9999 17.2102 24.9999L23.5367 24.9999C24.3448 24.9999 24.9999 24.3448 24.9999 23.5367L25 17.2102C25 16.402 24.3448 15.7469 23.5367 15.7469Z" fill="white"/>
<path fill-rule="evenodd" clip-rule="evenodd" d="M1.46332 15.7469C2.27147 15.7469 2.9266 16.402 2.9266 17.2102L2.9266 22.0734L7.78981 22.0734C8.59796 22.0734 9.25309 22.7285 9.25309 23.5367C9.25308 24.3448 8.59795 24.9999 7.78981 24.9999L1.46332 24.9999C0.655182 24.9999 5.26589e-05 24.3448 5.24944e-05 23.5367L5.25561e-05 17.2102C5.23094e-05 16.402 0.655182 15.7469 1.46332 15.7469Z" fill="white"/>
<path fill-rule="evenodd" clip-rule="evenodd" d="M9.25303 1.46327C9.25303 2.27142 8.5979 2.92654 7.78976 2.92654L2.92655 2.92654L2.92654 7.78976C2.92654 8.5979 2.27142 9.25303 1.46327 9.25303C0.655129 9.25303 2.60798e-07 8.5979 0 7.78976L1.86952e-06 1.46327C2.01987e-06 0.655129 0.655131 2.60798e-07 1.46327 1.64459e-07L7.78976 7.59415e-07C8.5979 5.80847e-07 9.25303 0.65513 9.25303 1.46327Z" fill="white"/>
<line x1="3.51184" y1="13.0474" x2="22.2417" y2="13.0474" stroke="white" stroke-width="2"/>
</svg>
