<svg width="24" height="24" viewBox="0 0 24 24" fill="none" xmlns="http://www.w3.org/2000/svg">
<path fill-rule="evenodd" clip-rule="evenodd" d="M16.5 15C16.5 14.7555 16.6156 14.3066 16.7018 14.1237C17.0589 13.3659 17.7535 12.8906 18.7031 12.8906H22.3594C22.5109 12.8906 22.5937 13.0608 22.5937 13.2187V16.7813C22.5937 17.0001 22.4845 17.1094 22.2656 17.1094H19.0313C17.9888 17.1094 17.1364 16.8033 16.7341 15.9377C16.6358 15.7261 16.5 15.3032 16.5 15ZM11.8424 0H12.0042C13.179 0.056527 13.4553 1.32376 13.8214 2.30365C13.8757 2.4491 13.9072 2.5905 13.9688 2.71878C15.2344 2.71878 16.5 2.71878 17.7656 2.71878C18.5608 2.71878 18.9224 2.64924 19.4076 2.99859C19.6958 3.20604 20.1094 3.68887 20.1094 4.17187V6.09373C20.7937 6.09373 21.1912 6.32194 21.6501 6.66238C22.0198 6.93665 22.2863 7.36146 22.4468 7.78766C22.6919 8.4388 22.5937 10.6334 22.5937 11.4844C23.2861 11.542 24 12.2648 24 13.0313V16.9687C24 17.8174 23.3347 18.343 22.5937 18.5156C22.5937 19.3788 22.6997 21.6857 22.4342 22.3405C22.0647 23.2524 21.1744 24 20.1094 24H2.48436C1.21342 24 0 22.8248 0 21.5625V8.53126C0 8.03702 0.204571 7.5352 0.468327 7.17145C0.526349 7.09145 0.55392 7.0682 0.615319 6.99036C1.01256 6.48704 1.70937 6.09373 2.39063 6.09373C2.27304 5.58903 1.96876 5.19356 1.96876 4.59375C1.96876 4.05798 2.27127 3.62614 2.56625 3.36316C2.93774 3.03192 4.55516 2.5487 5.13648 2.32397C6.63702 1.74387 8.23462 1.21314 9.74324 0.649479L11.0444 0.16936C11.3467 0.0630046 11.6105 0.00991022 11.8424 0ZM15.0938 14.7656C15.0938 15.6739 15.207 16.3135 15.7496 17.0629C15.8458 17.1957 16.0111 17.4065 16.1357 17.5205L16.5739 17.8792C16.7665 18.013 16.9036 18.087 17.1086 18.1883C17.4379 18.3511 17.9751 18.5156 18.4688 18.5156H21.1875V21.3281C21.1875 21.7772 21.0167 22.0489 20.779 22.279C20.5349 22.5152 20.1941 22.5937 19.7344 22.5937H2.8594C2.39966 22.5937 2.05883 22.5152 1.81479 22.279C1.577 22.0489 1.40625 21.7772 1.40625 21.3281V8.81251C1.40625 8.05601 1.88145 7.49999 2.62499 7.49999H19.9688C20.7123 7.49999 21.1875 8.05601 21.1875 8.81251V11.4844H18.3281C17.4458 11.4844 16.5689 12.0474 16.1129 12.5035C15.6563 12.9601 15.0938 13.8777 15.0938 14.7656ZM11.9063 4.45312C11.9063 4.29517 11.9891 4.12498 12.1406 4.12498H18.4688C18.6203 4.12498 18.7031 4.29517 18.7031 4.45312V6.09373H11.9063V4.45312ZM10.5 4.17187V6.09373H4.03124C3.91647 6.09373 3.93884 6.13492 3.81565 5.79371C3.24036 4.20022 3.13993 4.6026 4.56667 4.05106L5.80672 3.60361C6.00316 3.53839 6.22755 3.45291 6.4278 3.38093L10.7541 1.80106C12.0491 1.3004 11.9413 1.26159 12.2171 2.07976C12.2876 2.28871 12.405 2.51664 12.4219 2.71878C11.7525 2.71878 11.4678 2.75045 11.0976 3.08191C10.8443 3.30868 10.5 3.71915 10.5 4.17187Z" fill="#9B51E0"/>
<path fill-rule="evenodd" clip-rule="evenodd" d="M17.9063 14.9062C17.9063 15.336 18.0727 15.7031 18.6094 15.7031C19.493 15.7031 19.6502 14.2969 18.5156 14.2969C18.2282 14.2969 17.9063 14.6188 17.9063 14.9062Z" fill="#9B51E0"/>
</svg>
